<svg xmlns="http://www.w3.org/2000/svg" width="102.072" height="64.568" viewBox="0 0 102.072 64.568">
  <g id="Group_86" data-name="Group 86" transform="translate(-766.622 -3821.071)">
    <g id="Group_85" data-name="Group 85">
      <path id="Path_99" data-name="Path 99" d="M861.549,3848.444l-2.644-10.573a1.6,1.6,0,0,0,1.265-1.563V3834.6a6.72,6.72,0,0,0-6.712-6.712h-12.04v-3.517a3.306,3.306,0,0,0-3.3-3.3H776.744a3.307,3.307,0,0,0-3.3,3.3v28.981a1.6,1.6,0,1,0,3.2,0v-28.981a.106.106,0,0,1,.106-.106h61.371a.107.107,0,0,1,.107.106v28.982a1.6,1.6,0,1,0,3.2,0v-1.812H860.28a5.229,5.229,0,0,1,4.966,3.623h-4.969a1.6,1.6,0,0,0-1.6,1.6v3.409a5.013,5.013,0,0,0,5.008,5.008H865.5v7.032h-4.179a10.119,10.119,0,0,0-19.132,0h-.769v-12.04a1.6,1.6,0,0,0-3.2,0v12.04H805.062a10.119,10.119,0,0,0-19.131,0h-9.187a.106.106,0,0,1-.106-.107v-3.516h6.925a1.6,1.6,0,1,0,0-3.2H768.22a1.6,1.6,0,0,0,0,3.2h5.221v3.516a3.306,3.306,0,0,0,3.3,3.3h8.633c0,.036,0,.071,0,.107a10.122,10.122,0,0,0,20.244,0c0-.036,0-.071,0-.107h36.019c0,.036,0,.071,0,.107a10.122,10.122,0,0,0,20.244,0c0-.036,0-.071,0-.107H867.1a1.6,1.6,0,0,0,1.6-1.6v-17.047A8.43,8.43,0,0,0,861.549,3848.444Zm-20.131-17.357h12.04a3.52,3.52,0,0,1,3.516,3.516v.107H841.418Zm0,17.261v-10.442h14.2l2.61,10.442Zm-45.922,34.1a6.926,6.926,0,1,1,6.926-6.926A6.934,6.934,0,0,1,795.5,3882.443Zm56.257,0a6.926,6.926,0,1,1,6.926-6.926A6.934,6.934,0,0,1,851.753,3882.443Zm13.745-20.457h-1.811a1.814,1.814,0,0,1-1.812-1.812v-1.811H865.5v3.623Z" fill="#03c"/>
    </g>
  </g>
</svg>
