<svg xmlns="http://www.w3.org/2000/svg" width="78.328" height="63.948" viewBox="0 0 78.328 63.948">
  <g id="Group_93" data-name="Group 93" transform="translate(-1349.366 -3821.381)">
    <g id="Group_92" data-name="Group 92">
      <g id="Group_91" data-name="Group 91">
        <g id="Group_90" data-name="Group 90">
          <path id="Path_102" data-name="Path 102" d="M1391.128,3865.753h20.881a1.233,1.233,0,0,0,1.3-1.3V3852.7a1.233,1.233,0,0,0-1.3-1.3h-20.881a1.233,1.233,0,0,0-1.305,1.3v11.745A1.233,1.233,0,0,0,1391.128,3865.753Zm1.3-11.745H1410.7v9.135h-18.271Z" fill="#03c"/>
          <path id="Path_103" data-name="Path 103" d="M1355.892,3848.787h10.44a1.305,1.305,0,0,0,0-2.61h-10.44a1.305,1.305,0,0,0,0,2.61Z" fill="#03c"/>
          <path id="Path_104" data-name="Path 104" d="M1371.552,3848.787h10.441a1.305,1.305,0,0,0,0-2.61h-10.441a1.305,1.305,0,1,0,0,2.61Z" fill="#03c"/>
          <path id="Path_105" data-name="Path 105" d="M1355.892,3854.008h16.965a1.305,1.305,0,0,0,0-2.61h-16.965a1.305,1.305,0,0,0,0,2.61Z" fill="#03c"/>
          <path id="Path_106" data-name="Path 106" d="M1381.993,3851.4h-3.916a1.305,1.305,0,1,0,0,2.61h3.916a1.305,1.305,0,0,0,0-2.61Z" fill="#03c"/>
          <path id="Path_107" data-name="Path 107" d="M1426.495,3835.215a4.861,4.861,0,0,0-3.524-1.958l-3.132-.379V3826.6a5.235,5.235,0,0,0-5.22-5.22h-60.033a5.235,5.235,0,0,0-5.22,5.22v41.762a5.24,5.24,0,0,0,3.74,5,5.079,5.079,0,0,0,4.613,5.176l60.293,6.786h.522a5.225,5.225,0,0,0,5.22-4.437L1427.67,3839A5.071,5.071,0,0,0,1426.495,3835.215Zm-74.519-4.7h65.253v7.83h-65.253Zm2.61-6.526h60.033a2.618,2.618,0,0,1,2.61,2.61v1.3h-65.253v-1.3A2.618,2.618,0,0,1,1354.586,3823.991Zm-2.61,44.372v-27.406h65.253v27.406a2.617,2.617,0,0,1-2.61,2.61h-60.032A2.618,2.618,0,0,1,1351.976,3868.363Zm73.083-29.886-3.915,41.893a2.633,2.633,0,0,1-2.871,2.349l-60.163-6.786a2.639,2.639,0,0,1-2.349-2.35h58.858a5.235,5.235,0,0,0,5.22-5.22v-33.018l3,.261a2.23,2.23,0,0,1,1.7.914A2.639,2.639,0,0,1,1425.059,3838.477Z" fill="#03c"/>
        </g>
      </g>
    </g>
  </g>
</svg>
