<svg xmlns="http://www.w3.org/2000/svg" width="125.14" height="44.824" viewBox="0 0 125.14 44.824">
  <g id="Group_110" data-name="Group 110" transform="translate(-28 -64.995)">
    <g id="Group_109" data-name="Group 109">
      <g id="Group_108" data-name="Group 108">
        <g id="Group_99" data-name="Group 99">
          <path id="Path_57" data-name="Path 57" d="M35.082,109.819,28,95.431h3.377l2.95,6.829a9.2,9.2,0,0,1,.342.945q.2.63.413,1.5.142-.615.335-1.224a12.1,12.1,0,0,1,.463-1.224l2.935-6.829h3.363Z" fill="#fdfdff"/>
        </g>
        <g id="Group_100" data-name="Group 100">
          <path id="Path_58" data-name="Path 58" d="M57.126,102.675h-10.8a4.56,4.56,0,0,0,1.126,2.971,3.537,3.537,0,0,0,2.693,1.066,4.591,4.591,0,0,0,2.494-.63,5.19,5.19,0,0,0,1.738-2.033l2.608,1.461a7.913,7.913,0,0,1-2.822,3.049,7.564,7.564,0,0,1-3.947,1,6.861,6.861,0,0,1-5.173-1.99,7.318,7.318,0,0,1-1.923-5.311,7.233,7.233,0,0,1,1.988-5.247,6.8,6.8,0,0,1,5.108-2.054A6.769,6.769,0,0,1,55.3,96.834a7.222,7.222,0,0,1,1.824,5.254Zm-3.206-2.09a3.294,3.294,0,0,0-1.111-2.226,3.864,3.864,0,0,0-2.537-.766,3.8,3.8,0,0,0-2.451.744,4.007,4.007,0,0,0-1.3,2.248Z" fill="#fdfdff"/>
        </g>
        <g id="Group_101" data-name="Group 101">
          <path id="Path_59" data-name="Path 59" d="M60.347,109V95.431h2.906V97.65A5.841,5.841,0,0,1,65.434,95.6a6.6,6.6,0,0,1,3.049-.644,6.235,6.235,0,0,1,2.572.479,3.736,3.736,0,0,1,1.66,1.425,3.864,3.864,0,0,1,.513,1.3,14.542,14.542,0,0,1,.157,2.606V109H70.264v-6.972a6.593,6.593,0,0,0-.648-3.558,2.681,2.681,0,0,0-2.3-.88,4.469,4.469,0,0,0-1.931.4,3.2,3.2,0,0,0-1.333,1.131,3.088,3.088,0,0,0-.477,1.252,15.64,15.64,0,0,0-.135,2.441V109Z" fill="#fdfdff"/>
        </g>
        <g id="Group_102" data-name="Group 102">
          <path id="Path_60" data-name="Path 60" d="M87.122,86.813h3.092V109H87.122v-1.761a5.127,5.127,0,0,1-4.461,2.319,5.564,5.564,0,0,1-4.509-1.968,8.145,8.145,0,0,1-1.646-5.39,7.871,7.871,0,0,1,1.681-5.247,5.924,5.924,0,0,1,7.218-1.3,4.073,4.073,0,0,1,1.717,2Zm.085,15.361a4.981,4.981,0,0,0-.976-3.278A3.352,3.352,0,0,0,83.5,97.722a3.393,3.393,0,0,0-2.757,1.209,6.167,6.167,0,0,0-.036,6.693,3.662,3.662,0,0,0,5.458-.093A5.127,5.127,0,0,0,87.207,102.174Z" fill="#fdfdff"/>
        </g>
        <g id="Group_107" data-name="Group 107">
          <g id="Group_103" data-name="Group 103">
            <path id="Path_61" data-name="Path 61" d="M107.5,102.675H96.7a4.56,4.56,0,0,0,1.126,2.971,3.537,3.537,0,0,0,2.693,1.066,4.587,4.587,0,0,0,2.494-.63,5.182,5.182,0,0,0,1.738-2.033l2.608,1.461a7.918,7.918,0,0,1-2.821,3.049,7.57,7.57,0,0,1-3.948,1,6.859,6.859,0,0,1-5.172-1.99,7.314,7.314,0,0,1-1.924-5.311,7.237,7.237,0,0,1,1.988-5.247,7.6,7.6,0,0,1,10.2-.179,7.222,7.222,0,0,1,1.824,5.254Zm-3.206-2.09a3.29,3.29,0,0,0-1.111-2.226,3.863,3.863,0,0,0-2.537-.766,3.8,3.8,0,0,0-2.451.744,4.006,4.006,0,0,0-1.3,2.248Z" fill="#fdfdff"/>
          </g>
          <g id="Group_104" data-name="Group 104">
            <path id="Path_62" data-name="Path 62" d="M123.43,109h-3.093v-1.761a5.124,5.124,0,0,1-4.46,2.319,5.567,5.567,0,0,1-4.51-1.968,8.15,8.15,0,0,1-1.645-5.39,7.871,7.871,0,0,1,1.681-5.247,5.922,5.922,0,0,1,7.217-1.3,4.063,4.063,0,0,1,1.717,2V95.431h3.093Zm-3.007-6.829a4.986,4.986,0,0,0-.976-3.278,3.354,3.354,0,0,0-2.729-1.174,3.393,3.393,0,0,0-2.757,1.209,6.167,6.167,0,0,0-.036,6.693,3.647,3.647,0,0,0,5.451-.1A5.108,5.108,0,0,0,120.423,102.174Z" fill="#fdfdff"/>
          </g>
          <g id="Group_105" data-name="Group 105">
            <path id="Path_63" data-name="Path 63" d="M126.151,106.54l2.565-1.4a2.679,2.679,0,0,0,1.055,1.547,3.42,3.42,0,0,0,1.98.529,2.519,2.519,0,0,0,1.632-.479,1.6,1.6,0,0,0,.591-1.31q0-1.1-2.109-1.89-.713-.258-1.1-.429a8.832,8.832,0,0,1-3.028-1.833,3.205,3.205,0,0,1-.862-2.262,3.593,3.593,0,0,1,1.418-2.949,5.846,5.846,0,0,1,3.755-1.131,5.77,5.77,0,0,1,2.686.58,3.562,3.562,0,0,1,1.631,1.653l-2.194,1.518a2.025,2.025,0,0,0-.848-1.024,2.6,2.6,0,0,0-1.4-.379,2.222,2.222,0,0,0-1.417.422,1.361,1.361,0,0,0-.535,1.124q0,1.059,2.394,1.933.755.271,1.169.443a6.833,6.833,0,0,1,2.671,1.683,3.464,3.464,0,0,1,.805,2.34,3.826,3.826,0,0,1-1.467,3.186,6.4,6.4,0,0,1-4.047,1.152,6.6,6.6,0,0,1-3.292-.744A5.05,5.05,0,0,1,126.151,106.54Z" fill="#fdfdff"/>
          </g>
          <g id="Group_106" data-name="Group 106">
            <path id="Path_64" data-name="Path 64" d="M153.14,102.675h-10.8a4.56,4.56,0,0,0,1.126,2.971,3.537,3.537,0,0,0,2.693,1.066,4.585,4.585,0,0,0,2.493-.63,5.183,5.183,0,0,0,1.739-2.033L153,105.51a7.92,7.92,0,0,1-2.822,3.049,7.564,7.564,0,0,1-3.947,1,6.861,6.861,0,0,1-5.173-1.99,7.318,7.318,0,0,1-1.923-5.311,7.236,7.236,0,0,1,1.987-5.247,7.6,7.6,0,0,1,10.2-.179,7.222,7.222,0,0,1,1.824,5.254Zm-3.206-2.09a3.286,3.286,0,0,0-1.112-2.226,3.86,3.86,0,0,0-2.536-.766,3.8,3.8,0,0,0-2.451.744,4,4,0,0,0-1.3,2.248Z" fill="#fdfdff"/>
          </g>
        </g>
      </g>
    </g>
    <path id="Path_65" data-name="Path 65" d="M147.832,75.1c-.042-.292-1.281-9.015-9.667-10.082-.9-.045-7.752-.523-12.24,7.591l-1.8-1.419-1.146-.75-1.024-.582-.1-.05a6.668,6.668,0,0,0-7.527,1.108c-.006-.14-.014-.226-.014-.226a5.34,5.34,0,0,0-1.2-2.7,4.966,4.966,0,0,0-1.11-.926,5.587,5.587,0,0,0-2.824-.851c-2.249-.068-4.607,1.156-7,3.67-.045.052-.314.406-.681.97-.293-.068-.579-.145-.886-.193l-.412-.039s-7.985-5.27-10.49-4.137A6.43,6.43,0,0,0,88.014,67.5a.355.355,0,0,0-.024.181c-.03.031-.052.061-.075.083,0,0-.346.862,1.331.111,0,0,2.918-1.466,10.726,3.63a1.481,1.481,0,0,0,.366.3,2.893,2.893,0,0,0-.556,1.2,9.065,9.065,0,0,0-2.463.135l-.388.107s-8.474-2.5-10.528-.484a7.9,7.9,0,0,0-1.335,1.616.433.433,0,0,0,.044.267c.017.219.181.582,1.246-.468,0,0,2.365-2.491,10.628-.1,0,0,.416.393,1.812.255a8.323,8.323,0,0,1,.993-.126,11.838,11.838,0,0,0-.758,5.142.084.084,0,0,1,0,.036c.018.112.08.5.207,1.011.028.119.066.246.1.374.058.194.116.388.193.6a5.563,5.563,0,0,0,1.433,2.388.214.214,0,0,0,.07.05,2.262,2.262,0,0,0,.491.31,2.122,2.122,0,0,0,1.631.062.288.288,0,0,0,.085-.022.256.256,0,0,0,.074-.03l.116-.046c.049-.025.1-.042.156-.069s.115-.054.181-.083a24.49,24.49,0,0,0,7.419-5.288,4.49,4.49,0,0,0,.994,1.924,6.072,6.072,0,0,0,4.279,1.766c3.494.33,7.449-3.59,9.642-6.179l6.071,5.525c.167.14,4.141,3.465,8.268,3.825A6.611,6.611,0,0,0,146.2,83C147.832,80.944,148.318,78.457,147.832,75.1Zm-35.681-3.146,0,.017a7.15,7.15,0,0,1-1.971,4.667c-2.133,2.347-5.241,4.933-7.122,5.4a1.415,1.415,0,0,1-1.129-.064A2.818,2.818,0,0,1,101,79.552a11.742,11.742,0,0,1,.4-2.916,2.684,2.684,0,0,1,.067-.294,12.215,12.215,0,0,1,.746-2.149c.149-.334.3-.659.47-.97.053-.106.108-.2.154-.3.163-.3.337-.586.513-.863a4.411,4.411,0,0,1,.271-.4c.076-.127.164-.239.243-.349.053-.053.107-.106.152-.149,2.168-2.627,5.162-3.406,6.768-2.348a2.394,2.394,0,0,1,.592.558l.011.008a.355.355,0,0,1,.042.046c.012.016.021.023.024.04A3.508,3.508,0,0,1,112.151,71.951Zm4.515,7.837-.167-.008a3.75,3.75,0,0,1-2.437-.921,2.492,2.492,0,0,1-.489-2.021,6.6,6.6,0,0,1,.394-1.326l.031-.064c1.342-2.843,3.144-3.621,4.562-3.714a4.945,4.945,0,0,1,2.2.371l.9.508,1.011.661.921.691.606.5C121.942,77.133,118.753,80.026,116.666,79.788Zm27.546,1.626a4.1,4.1,0,0,1-3.557,1.546c-3.319-.289-6.818-3.205-6.819-3.205l-6.15-5.594.045-.1a21.117,21.117,0,0,1,2.053-2.706l.016-.018c.181-.2.359-.383.537-.563.1-.1.2-.2.3-.3l.018-.018c2.214-2.108,5.536-4.1,9.446-2.7.074.027.15.053.223.082.154.06.309.128.464.2a7.515,7.515,0,0,1,1.48.934c.109.09.219.19.334.3.082.076.164.152.241.229a10.152,10.152,0,0,1,2.641,5.378l0,.016c.05.266.084.554.121.84.005.059.009.1.011.117A6.671,6.671,0,0,1,144.212,81.414Z" fill="#fdfdff"/>
  </g>
</svg>
