<svg xmlns="http://www.w3.org/2000/svg" width="25.542" height="25.541" viewBox="0 0 25.542 25.541">
  <g id="Group_80" data-name="Group 80" transform="translate(-195.988 -4224.072)">
    <path id="Path_95" data-name="Path 95" d="M208.759,4224.072a12.771,12.771,0,1,0,12.771,12.77A12.784,12.784,0,0,0,208.759,4224.072Zm0,24.508a11.738,11.738,0,1,1,11.738-11.738A11.749,11.749,0,0,1,208.759,4248.58Z" fill="#03c"/>
    <path id="Path_96" data-name="Path 96" d="M205.537,4228.152a1.06,1.06,0,0,0-1.5,0,1.052,1.052,0,0,0,0,1.5l7.192,7.192-7.192,7.192a1.058,1.058,0,0,0,1.5,1.5l7.94-7.941a1.051,1.051,0,0,0,0-1.5Z" fill="#03c"/>
  </g>
</svg>
