<svg xmlns="http://www.w3.org/2000/svg" width="96.61" height="59.29" viewBox="0 0 96.61 59.29">
  <path id="Path_94" data-name="Path 94" d="M306.619,3879.881h-5.743a4.23,4.23,0,0,0,.8-2.465v-49.443a4.269,4.269,0,0,0-4.264-4.263h-78a4.268,4.268,0,0,0-4.262,4.263v49.443a4.237,4.237,0,0,0,.831,2.508h-5.8s-.261.264.426.949c1.947,1.948,6.321,2.117,6.321,2.117v0s81.926.019,82.017.014c4.567,0,6.042-1.369,7.249-2.168C307.088,3879.933,306.619,3879.881,306.619,3879.881Zm-42.733,1.04H252.91v-.746h10.974l0,.746Zm34.64-4.485H218.167v-49.852h80.36v49.852Z" transform="translate(-210.132 -3823.71)" fill="#03c"/>
</svg>
