<svg xmlns="http://www.w3.org/2000/svg" xmlns:xlink="http://www.w3.org/1999/xlink" width="163.5" height="44.3" viewBox="0 0 163.5 44.3">
  <defs>
    <linearGradient id="linear-gradient" y1="0.5" x2="1" y2="0.5" gradientUnits="objectBoundingBox">
      <stop offset="0" stop-color="#0e32e5"/>
      <stop offset="1" stop-color="#287df9"/>
    </linearGradient>
  </defs>
  <g id="Group_124" data-name="Group 124" transform="translate(-536.5 376.251)">
    <g id="Group_122" data-name="Group 122" transform="translate(142 -575)">
      <path id="Path_13" data-name="Path 13" d="M403.753,243.049,394.5,224.181h4.413l3.853,8.955a12.282,12.282,0,0,1,.447,1.239q.261.826.54,1.972.186-.807.437-1.606a16.15,16.15,0,0,1,.606-1.6l3.835-8.955h4.394Z"/>
      <path id="Path_14" data-name="Path 14" d="M432.554,233.681H418.442a6,6,0,0,0,1.471,3.9,4.612,4.612,0,0,0,3.519,1.4,5.974,5.974,0,0,0,3.258-.826,6.788,6.788,0,0,0,2.271-2.666l3.407,1.915a10.367,10.367,0,0,1-3.686,4,9.858,9.858,0,0,1-5.157,1.314,8.947,8.947,0,0,1-6.758-2.609,9.618,9.618,0,0,1-2.514-6.966,9.507,9.507,0,0,1,2.6-6.88,9.9,9.9,0,0,1,13.321-.235,9.489,9.489,0,0,1,2.383,6.89Zm-4.189-2.741a4.322,4.322,0,0,0-1.452-2.92,5.037,5.037,0,0,0-3.314-1,4.951,4.951,0,0,0-3.2.976,5.252,5.252,0,0,0-1.694,2.948Z"/>
      <path id="Path_15" data-name="Path 15" d="M436.762,241.979v-17.8h3.8v2.91a7.652,7.652,0,0,1,2.848-2.685,8.619,8.619,0,0,1,3.985-.844,8.11,8.11,0,0,1,3.36.628,4.883,4.883,0,0,1,2.169,1.869,5.1,5.1,0,0,1,.67,1.708,19.154,19.154,0,0,1,.2,3.417v10.795H449.72v-9.143q0-3.51-.847-4.666a3.5,3.5,0,0,0-3.007-1.154,5.812,5.812,0,0,0-2.523.526,4.182,4.182,0,0,0-1.741,1.483,4.077,4.077,0,0,0-.623,1.642,20.512,20.512,0,0,0-.177,3.2v8.11Z"/>
      <path id="Path_16" data-name="Path 16" d="M471.744,212.879h4.041v29.1h-4.041V239.67a6.687,6.687,0,0,1-5.827,3.041,7.256,7.256,0,0,1-5.892-2.581,10.71,10.71,0,0,1-2.151-7.069,10.354,10.354,0,0,1,2.2-6.881,7.719,7.719,0,0,1,9.43-1.708,5.317,5.317,0,0,1,2.243,2.619Zm.112,20.145a6.557,6.557,0,0,0-1.275-4.3,4.374,4.374,0,0,0-3.565-1.539,4.426,4.426,0,0,0-3.6,1.586,8.116,8.116,0,0,0-.046,8.777,4.771,4.771,0,0,0,7.13-.122A6.737,6.737,0,0,0,471.856,233.024Z"/>
      <g id="Group_23" data-name="Group 23">
        <path id="Path_17" data-name="Path 17" d="M498.368,233.681H484.256a5.991,5.991,0,0,0,1.47,3.9,4.612,4.612,0,0,0,3.519,1.4,5.974,5.974,0,0,0,3.258-.826,6.788,6.788,0,0,0,2.271-2.666l3.408,1.915a10.369,10.369,0,0,1-3.687,4,9.855,9.855,0,0,1-5.157,1.314,8.949,8.949,0,0,1-6.758-2.609,9.617,9.617,0,0,1-2.513-6.966,9.5,9.5,0,0,1,2.6-6.88,9.9,9.9,0,0,1,13.321-.235,9.493,9.493,0,0,1,2.383,6.89Zm-4.189-2.741a4.331,4.331,0,0,0-1.452-2.92,5.039,5.039,0,0,0-3.314-1,4.952,4.952,0,0,0-3.2.976,5.253,5.253,0,0,0-1.694,2.948Z" fill="#0e32e5"/>
        <path id="Path_18" data-name="Path 18" d="M519.182,241.979h-4.04V239.67a6.687,6.687,0,0,1-5.827,3.041,7.256,7.256,0,0,1-5.892-2.581,10.71,10.71,0,0,1-2.151-7.069,10.349,10.349,0,0,1,2.2-6.881,7.719,7.719,0,0,1,9.43-1.708,5.317,5.317,0,0,1,2.243,2.619v-2.91h4.04Zm-3.928-8.955a6.558,6.558,0,0,0-1.275-4.3,4.377,4.377,0,0,0-3.566-1.539,4.425,4.425,0,0,0-3.6,1.586,8.113,8.113,0,0,0-.047,8.777,4.753,4.753,0,0,0,7.122-.131A6.715,6.715,0,0,0,515.254,233.024Z" fill="#0e32e5"/>
        <path id="Path_19" data-name="Path 19" d="M522.738,238.75l3.351-1.84a3.52,3.52,0,0,0,1.378,2.028,4.458,4.458,0,0,0,2.588.694,3.281,3.281,0,0,0,2.132-.629,2.1,2.1,0,0,0,.772-1.718q0-1.444-2.755-2.478-.931-.338-1.434-.563a11.518,11.518,0,0,1-3.956-2.4,4.214,4.214,0,0,1-1.126-2.966,4.721,4.721,0,0,1,1.852-3.868,7.622,7.622,0,0,1,4.906-1.483,7.515,7.515,0,0,1,3.509.76,4.665,4.665,0,0,1,2.132,2.169l-2.867,1.99a2.654,2.654,0,0,0-1.108-1.343,3.377,3.377,0,0,0-1.834-.5,2.9,2.9,0,0,0-1.852.554,1.785,1.785,0,0,0-.7,1.474q0,1.389,3.128,2.534.985.357,1.526.582a8.906,8.906,0,0,1,3.491,2.206,4.559,4.559,0,0,1,1.052,3.07,5.023,5.023,0,0,1-1.918,4.177,8.336,8.336,0,0,1-5.287,1.511,8.6,8.6,0,0,1-4.3-.976A6.623,6.623,0,0,1,522.738,238.75Z" fill="#0e32e5"/>
        <path id="Path_20" data-name="Path 20" d="M558,233.681H543.888a5.986,5.986,0,0,0,1.471,3.9,4.612,4.612,0,0,0,3.519,1.4,5.974,5.974,0,0,0,3.258-.826,6.8,6.8,0,0,0,2.271-2.666l3.407,1.915a10.367,10.367,0,0,1-3.686,4,9.858,9.858,0,0,1-5.157,1.314,8.951,8.951,0,0,1-6.759-2.609,9.622,9.622,0,0,1-2.513-6.966,9.507,9.507,0,0,1,2.6-6.88,9.9,9.9,0,0,1,13.321-.235,9.489,9.489,0,0,1,2.383,6.89Zm-4.189-2.741a4.322,4.322,0,0,0-1.452-2.92,5.039,5.039,0,0,0-3.314-1,4.951,4.951,0,0,0-3.2.976,5.247,5.247,0,0,0-1.694,2.948Z" fill="#0e32e5"/>
      </g>
    </g>
    <path id="Path_260" data-name="Path 260" d="M541.459,207.242c-.035-.245-1.073-7.58-8.1-8.476-.751-.039-6.493-.44-10.252,6.382l-1.507-1.194-.96-.63-.858-.489-.082-.043a5.571,5.571,0,0,0-6.305.933c0-.119-.011-.191-.011-.191a4.5,4.5,0,0,0-1.006-2.269,4.162,4.162,0,0,0-.93-.779,4.674,4.674,0,0,0-2.366-.716c-1.884-.057-3.859.972-5.867,3.086-.037.044-.263.341-.57.815-.246-.057-.485-.122-.742-.162l-.345-.033s-6.689-4.431-8.788-3.478a5.361,5.361,0,0,0-1.419.857.293.293,0,0,0-.02.152c-.025.026-.044.052-.063.07,0,0-.289.724,1.115.093,0,0,2.444-1.232,8.985,3.052a1.223,1.223,0,0,0,.306.255,2.434,2.434,0,0,0-.466,1.006,7.575,7.575,0,0,0-2.063.114l-.325.09s-7.1-2.1-8.818-.407a6.619,6.619,0,0,0-1.118,1.358.361.361,0,0,0,.036.225c.014.184.152.489,1.044-.393,0,0,1.981-2.1,8.9-.083,0,0,.348.33,1.518.213a7.186,7.186,0,0,1,.832-.106,9.99,9.99,0,0,0-.635,4.324.075.075,0,0,1,0,.03c.015.094.068.421.174.85.023.1.055.207.08.315.048.163.1.326.161.5a4.677,4.677,0,0,0,1.2,2.007.173.173,0,0,0,.058.042,1.9,1.9,0,0,0,.411.261,1.776,1.776,0,0,0,1.366.052.22.22,0,0,0,.071-.019.2.2,0,0,0,.063-.025c.027-.012.062-.025.1-.038s.083-.036.131-.059.1-.045.151-.069a20.493,20.493,0,0,0,6.214-4.446,3.789,3.789,0,0,0,.834,1.618,5.075,5.075,0,0,0,3.584,1.484c2.926.278,6.239-3.018,8.076-5.195l5.085,4.645c.14.119,3.469,2.913,6.926,3.216a5.472,5.472,0,0,0,.839.009,5.541,5.541,0,0,0,3.986-2.108C541.459,212.158,541.866,210.067,541.459,207.242ZM511.571,204.6l0,.014a6.021,6.021,0,0,1-1.651,3.924c-1.787,1.974-4.39,4.147-5.966,4.539a1.181,1.181,0,0,1-.946-.055,2.371,2.371,0,0,1-.776-2.031,9.891,9.891,0,0,1,.337-2.452,2.337,2.337,0,0,1,.056-.247,10.171,10.171,0,0,1,.626-1.807c.124-.28.25-.554.393-.815.045-.09.091-.172.129-.252.137-.253.283-.493.43-.725a3.386,3.386,0,0,1,.227-.335c.064-.107.137-.2.2-.294.044-.044.089-.089.127-.125,1.816-2.209,4.324-2.864,5.669-1.974a1.993,1.993,0,0,1,.5.47l.009.006a.252.252,0,0,1,.035.039c.01.013.018.019.02.033A2.954,2.954,0,0,1,511.571,204.6Zm3.783,6.589-.14-.007a3.131,3.131,0,0,1-2.042-.774,2.1,2.1,0,0,1-.409-1.7,5.507,5.507,0,0,1,.329-1.115l.027-.054c1.124-2.39,2.633-3.044,3.821-3.122a4.118,4.118,0,0,1,1.844.312l.752.427.847.556.772.581.508.421C519.772,208.954,517.1,211.386,515.354,211.186Zm23.073,1.367a3.425,3.425,0,0,1-2.979,1.3c-2.78-.243-5.712-2.694-5.712-2.694l-5.152-4.7.038-.08a17.8,17.8,0,0,1,1.719-2.275l.014-.015c.151-.168.3-.322.449-.474.084-.084.168-.168.255-.252l.016-.015c1.854-1.772,4.636-3.446,7.912-2.267.062.024.126.045.187.07.128.05.258.107.388.166a6.268,6.268,0,0,1,1.24.785c.091.076.184.16.28.25.069.064.137.127.2.193a8.542,8.542,0,0,1,2.212,4.521l0,.014c.041.223.07.466.1.706.005.049.008.086.01.1A5.623,5.623,0,0,1,538.427,212.553Z" transform="translate(142 -575)" fill="url(#linear-gradient)"/>
    <g id="Group_123" data-name="Group 123" transform="translate(142 -575)">
      <path id="Path_13-2" data-name="Path 13" d="M403.753,243.049,394.5,224.181h4.413l3.853,8.955a12.282,12.282,0,0,1,.447,1.239q.261.826.54,1.972.186-.807.437-1.606a16.15,16.15,0,0,1,.606-1.6l3.835-8.955h4.394Z"/>
      <path id="Path_14-2" data-name="Path 14" d="M432.554,233.681H418.442a6,6,0,0,0,1.471,3.9,4.612,4.612,0,0,0,3.519,1.4,5.974,5.974,0,0,0,3.258-.826,6.788,6.788,0,0,0,2.271-2.666l3.407,1.915a10.367,10.367,0,0,1-3.686,4,9.858,9.858,0,0,1-5.157,1.314,8.947,8.947,0,0,1-6.758-2.609,9.618,9.618,0,0,1-2.514-6.966,9.507,9.507,0,0,1,2.6-6.88,9.9,9.9,0,0,1,13.321-.235,9.489,9.489,0,0,1,2.383,6.89Zm-4.189-2.741a4.322,4.322,0,0,0-1.452-2.92,5.037,5.037,0,0,0-3.314-1,4.951,4.951,0,0,0-3.2.976,5.252,5.252,0,0,0-1.694,2.948Z"/>
      <path id="Path_15-2" data-name="Path 15" d="M436.762,241.979v-17.8h3.8v2.91a7.652,7.652,0,0,1,2.848-2.685,8.619,8.619,0,0,1,3.985-.844,8.11,8.11,0,0,1,3.36.628,4.883,4.883,0,0,1,2.169,1.869,5.1,5.1,0,0,1,.67,1.708,19.154,19.154,0,0,1,.2,3.417v10.795H449.72v-9.143q0-3.51-.847-4.666a3.5,3.5,0,0,0-3.007-1.154,5.812,5.812,0,0,0-2.523.526,4.182,4.182,0,0,0-1.741,1.483,4.077,4.077,0,0,0-.623,1.642,20.512,20.512,0,0,0-.177,3.2v8.11Z"/>
      <path id="Path_16-2" data-name="Path 16" d="M471.744,212.879h4.041v29.1h-4.041V239.67a6.687,6.687,0,0,1-5.827,3.041,7.256,7.256,0,0,1-5.892-2.581,10.71,10.71,0,0,1-2.151-7.069,10.354,10.354,0,0,1,2.2-6.881,7.719,7.719,0,0,1,9.43-1.708,5.317,5.317,0,0,1,2.243,2.619Zm.112,20.145a6.557,6.557,0,0,0-1.275-4.3,4.374,4.374,0,0,0-3.565-1.539,4.426,4.426,0,0,0-3.6,1.586,8.116,8.116,0,0,0-.046,8.777,4.771,4.771,0,0,0,7.13-.122A6.737,6.737,0,0,0,471.856,233.024Z"/>
      <g id="Group_23-2" data-name="Group 23">
        <path id="Path_17-2" data-name="Path 17" d="M498.368,233.681H484.256a5.991,5.991,0,0,0,1.47,3.9,4.612,4.612,0,0,0,3.519,1.4,5.974,5.974,0,0,0,3.258-.826,6.788,6.788,0,0,0,2.271-2.666l3.408,1.915a10.369,10.369,0,0,1-3.687,4,9.855,9.855,0,0,1-5.157,1.314,8.949,8.949,0,0,1-6.758-2.609,9.617,9.617,0,0,1-2.513-6.966,9.5,9.5,0,0,1,2.6-6.88,9.9,9.9,0,0,1,13.321-.235,9.493,9.493,0,0,1,2.383,6.89Zm-4.189-2.741a4.331,4.331,0,0,0-1.452-2.92,5.039,5.039,0,0,0-3.314-1,4.952,4.952,0,0,0-3.2.976,5.253,5.253,0,0,0-1.694,2.948Z" fill="#0e32e5"/>
        <path id="Path_18-2" data-name="Path 18" d="M519.182,241.979h-4.04V239.67a6.687,6.687,0,0,1-5.827,3.041,7.256,7.256,0,0,1-5.892-2.581,10.71,10.71,0,0,1-2.151-7.069,10.349,10.349,0,0,1,2.2-6.881,7.719,7.719,0,0,1,9.43-1.708,5.317,5.317,0,0,1,2.243,2.619v-2.91h4.04Zm-3.928-8.955a6.558,6.558,0,0,0-1.275-4.3,4.377,4.377,0,0,0-3.566-1.539,4.425,4.425,0,0,0-3.6,1.586,8.113,8.113,0,0,0-.047,8.777,4.753,4.753,0,0,0,7.122-.131A6.715,6.715,0,0,0,515.254,233.024Z" fill="#0e32e5"/>
        <path id="Path_19-2" data-name="Path 19" d="M522.738,238.75l3.351-1.84a3.52,3.52,0,0,0,1.378,2.028,4.458,4.458,0,0,0,2.588.694,3.281,3.281,0,0,0,2.132-.629,2.1,2.1,0,0,0,.772-1.718q0-1.444-2.755-2.478-.931-.338-1.434-.563a11.518,11.518,0,0,1-3.956-2.4,4.214,4.214,0,0,1-1.126-2.966,4.721,4.721,0,0,1,1.852-3.868,7.622,7.622,0,0,1,4.906-1.483,7.515,7.515,0,0,1,3.509.76,4.665,4.665,0,0,1,2.132,2.169l-2.867,1.99a2.654,2.654,0,0,0-1.108-1.343,3.377,3.377,0,0,0-1.834-.5,2.9,2.9,0,0,0-1.852.554,1.785,1.785,0,0,0-.7,1.474q0,1.389,3.128,2.534.985.357,1.526.582a8.906,8.906,0,0,1,3.491,2.206,4.559,4.559,0,0,1,1.052,3.07,5.023,5.023,0,0,1-1.918,4.177,8.336,8.336,0,0,1-5.287,1.511,8.6,8.6,0,0,1-4.3-.976A6.623,6.623,0,0,1,522.738,238.75Z" fill="#0e32e5"/>
        <path id="Path_20-2" data-name="Path 20" d="M558,233.681H543.888a5.986,5.986,0,0,0,1.471,3.9,4.612,4.612,0,0,0,3.519,1.4,5.974,5.974,0,0,0,3.258-.826,6.8,6.8,0,0,0,2.271-2.666l3.407,1.915a10.367,10.367,0,0,1-3.686,4,9.858,9.858,0,0,1-5.157,1.314,8.951,8.951,0,0,1-6.759-2.609,9.622,9.622,0,0,1-2.513-6.966,9.507,9.507,0,0,1,2.6-6.88,9.9,9.9,0,0,1,13.321-.235,9.489,9.489,0,0,1,2.383,6.89Zm-4.189-2.741a4.322,4.322,0,0,0-1.452-2.92,5.039,5.039,0,0,0-3.314-1,4.951,4.951,0,0,0-3.2.976,5.247,5.247,0,0,0-1.694,2.948Z" fill="#0e32e5"/>
      </g>
    </g>
    <path id="Path_261" data-name="Path 261" d="M541.459,207.242c-.035-.245-1.073-7.58-8.1-8.476-.751-.039-6.493-.44-10.252,6.382l-1.507-1.194-.96-.63-.858-.489-.082-.043a5.571,5.571,0,0,0-6.305.933c0-.119-.011-.191-.011-.191a4.5,4.5,0,0,0-1.006-2.269,4.162,4.162,0,0,0-.93-.779,4.674,4.674,0,0,0-2.366-.716c-1.884-.057-3.859.972-5.867,3.086-.037.044-.263.341-.57.815-.246-.057-.485-.122-.742-.162l-.345-.033s-6.689-4.431-8.788-3.478a5.361,5.361,0,0,0-1.419.857.293.293,0,0,0-.02.152c-.025.026-.044.052-.063.07,0,0-.289.724,1.115.093,0,0,2.444-1.232,8.985,3.052a1.223,1.223,0,0,0,.306.255,2.434,2.434,0,0,0-.466,1.006,7.575,7.575,0,0,0-2.063.114l-.325.09s-7.1-2.1-8.818-.407a6.619,6.619,0,0,0-1.118,1.358.361.361,0,0,0,.036.225c.014.184.152.489,1.044-.393,0,0,1.981-2.1,8.9-.083,0,0,.348.33,1.518.213a7.186,7.186,0,0,1,.832-.106,9.99,9.99,0,0,0-.635,4.324.075.075,0,0,1,0,.03c.015.094.068.421.174.85.023.1.055.207.08.315.048.163.1.326.161.5a4.677,4.677,0,0,0,1.2,2.007.173.173,0,0,0,.058.042,1.9,1.9,0,0,0,.411.261,1.776,1.776,0,0,0,1.366.052.22.22,0,0,0,.071-.019.2.2,0,0,0,.063-.025c.027-.012.062-.025.1-.038s.083-.036.131-.059.1-.045.151-.069a20.493,20.493,0,0,0,6.214-4.446,3.789,3.789,0,0,0,.834,1.618,5.075,5.075,0,0,0,3.584,1.484c2.926.278,6.239-3.018,8.076-5.195l5.085,4.645c.14.119,3.469,2.913,6.926,3.216a5.472,5.472,0,0,0,.839.009,5.541,5.541,0,0,0,3.986-2.108C541.459,212.158,541.866,210.067,541.459,207.242ZM511.571,204.6l0,.014a6.021,6.021,0,0,1-1.651,3.924c-1.787,1.974-4.39,4.147-5.966,4.539a1.181,1.181,0,0,1-.946-.055,2.371,2.371,0,0,1-.776-2.031,9.891,9.891,0,0,1,.337-2.452,2.337,2.337,0,0,1,.056-.247,10.171,10.171,0,0,1,.626-1.807c.124-.28.25-.554.393-.815.045-.09.091-.172.129-.252.137-.253.283-.493.43-.725a3.386,3.386,0,0,1,.227-.335c.064-.107.137-.2.2-.294.044-.044.089-.089.127-.125,1.816-2.209,4.324-2.864,5.669-1.974a1.993,1.993,0,0,1,.5.47l.009.006a.252.252,0,0,1,.035.039c.01.013.018.019.02.033A2.954,2.954,0,0,1,511.571,204.6Zm3.783,6.589-.14-.007a3.131,3.131,0,0,1-2.042-.774,2.1,2.1,0,0,1-.409-1.7,5.507,5.507,0,0,1,.329-1.115l.027-.054c1.124-2.39,2.633-3.044,3.821-3.122a4.118,4.118,0,0,1,1.844.312l.752.427.847.556.772.581.508.421C519.772,208.954,517.1,211.386,515.354,211.186Zm23.073,1.367a3.425,3.425,0,0,1-2.979,1.3c-2.78-.243-5.712-2.694-5.712-2.694l-5.152-4.7.038-.08a17.8,17.8,0,0,1,1.719-2.275l.014-.015c.151-.168.3-.322.449-.474.084-.084.168-.168.255-.252l.016-.015c1.854-1.772,4.636-3.446,7.912-2.267.062.024.126.045.187.07.128.05.258.107.388.166a6.268,6.268,0,0,1,1.24.785c.091.076.184.16.28.25.069.064.137.127.2.193a8.542,8.542,0,0,1,2.212,4.521l0,.014c.041.223.07.466.1.706.005.049.008.086.01.1A5.623,5.623,0,0,1,538.427,212.553Z" transform="translate(142 -575)" fill="url(#linear-gradient)"/>
  </g>
</svg>
