<svg xmlns="http://www.w3.org/2000/svg" xmlns:xlink="http://www.w3.org/1999/xlink" width="162.073" height="161.842" viewBox="0 0 162.073 161.842">
  <defs>
    <filter id="Rectangle_20" x="0" y="0" width="162.073" height="161.842" filterUnits="userSpaceOnUse">
      <feOffset dx="-2" dy="1" input="SourceAlpha"/>
      <feGaussianBlur stdDeviation="5" result="blur"/>
      <feFlood flood-color="#0019ff" flood-opacity="0.302"/>
      <feComposite operator="in" in2="blur"/>
      <feComposite in="SourceGraphic"/>
    </filter>
  </defs>
  <g id="Group_122" data-name="Group 122" transform="translate(-2219.409 -5886.158)">
    <g id="Group_26" data-name="Group 26" transform="translate(495 -110)">
      <g transform="matrix(1, 0, 0, 1, 1724.41, 5996.16)" filter="url(#Rectangle_20)">
        <rect id="Rectangle_20-2" data-name="Rectangle 20" width="132.073" height="131.842" rx="65.921" transform="translate(17 14)" fill="#03c"/>
      </g>
      <path id="Path_22" data-name="Path 22" d="M1807.454,6039.567h-.017a36.488,36.488,0,0,0-29.551,57.912l-4.552,13.564,14.035-4.486a36.505,36.505,0,1,0,20.085-66.99Zm21.245,51.559c-.88,2.487-4.375,4.551-7.165,5.152-1.907.407-4.4.731-12.788-2.746-10.729-4.446-17.639-15.349-18.178-16.057-.515-.707-4.336-5.773-4.336-11.012a11.656,11.656,0,0,1,3.734-8.887,5.309,5.309,0,0,1,3.734-1.309c.45,0,.857.023,1.222.041,1.072.046,1.612.109,2.319,1.8.88,2.122,3.025,7.361,3.282,7.9a2.174,2.174,0,0,1,.154,1.975,6.343,6.343,0,0,1-1.181,1.676c-.539.621-1.05,1.1-1.589,1.762-.494.579-1.05,1.2-.429,2.273a32.346,32.346,0,0,0,5.924,7.361,26.844,26.844,0,0,0,8.562,5.281,2.309,2.309,0,0,0,2.574-.406,44.4,44.4,0,0,0,2.853-3.78,2.039,2.039,0,0,1,2.62-.794c.985.342,6.2,2.921,7.273,3.455s1.78.795,2.041,1.246S1829.581,6088.634,1828.7,6091.126Z" fill="#f2f2f2"/>
    </g>
  </g>
</svg>
